<?xml version="1.0" encoding="UTF-8"?>
<svg xmlns="http://www.w3.org/2000/svg" version="1.1" viewBox="0 0 290.3 132.5">
  <defs>
    <style>
      .cls-1 {
        fill: #00629b;
      }
    </style>
  </defs>
  <!-- Generator: Adobe Illustrator 28.7.2, SVG Export Plug-In . SVG Version: 1.2.0 Build 154)  -->
  <g>
    <g id="Layer_2">
      <g id="Components">
        <g id="_x38_0b11ab4-8fd2-4f1d-826a-b18b0f890427_x40_10">
          <path class="cls-1" d="M21.2,54.2s-2.5-.4-3.2-.5c-2.8-.4-5-.8-6.4-1.3-2.8-1.1-2.6-3.6-2.6-3.6.2-4.3,3-6,9.7-6s8.8,2,10.3,3.3l.7.7,5.3-5.5-.8-.7c-3.7-3.3-9.6-5.3-15.8-5.3S1.2,38.9,1.2,49c0,1.1.1,2.3.4,3.3,2,6.9,9.4,8,15.4,8.9.6,0,2.3.4,2.3.4,7.8,1.2,10.3,1.8,10.4,5.3.2,5.4-10.9,5.4-10.9,5.4-5.4,0-10.6-1.7-12.9-4.1l-.7-.8L0,73l.7.7c4.5,4.6,12.5,6.2,18,6.2s19-.9,18.6-13.2c-.3-10-9.5-11.4-16.1-12.4h0Z"/>
          <polygon class="cls-1" points="151.8 36 151.8 43.6 165.7 43.6 165.7 79.1 173.2 79.1 173.2 43.6 187.1 43.6 187.1 36 151.8 36"/>
          <rect class="cls-1" x="43.4" y="36" width="7.6" height="43.1"/>
          <polygon class="cls-1" points="138.1 55.2 114.4 55.2 114.4 36 106.8 36 106.8 79.1 114.4 79.1 114.4 62.7 138.1 62.7 138.1 79.1 145.7 79.1 145.7 36 138.1 36 138.1 55.2"/>
          <path class="cls-1" d="M79,54.8v7.6h14.1c-.4,10.9-13.5,9.9-13.5,9.9-8.5-.4-15.1-6.7-15.1-14.7s7-14.7,16-14.7,8.4,1.6,11.4,4.5l.7.7,5.2-5.4-.7-.7c-4.4-4.3-10.4-6.6-16.6-6.6-13.2,0-23.6,9.8-23.6,22.3s10.4,22.3,23.6,22.3,9.5,0,15.1-5.3c3.4-3.2,5.1-7.5,5.1-13v-6.8h-21.7Z"/>
          <path class="cls-1" d="M7.3,26.9h-2.6c-.6,0-3.1,0-3.1,0l-.2-.2c0-3,.2-5.9.2-8.9v-2.2c0-3.7,0-7.5-.3-11.2l.2-.2h2.2c1.1,0,2.9,0,3.6,0v.2c0,4.4,0,8.8,0,13.2s0,6.1.2,9.1l-.2.2h0Z"/>
          <path class="cls-1" d="M26.9,22.8c0,1.3-.2,2.7-.2,3.9l-.3.2c-4.7,0-9.4,0-14.1,0l-.2-.2c.1-2.9.2-5.9.2-8.9v-6.6c0-2.3,0-4.5-.2-6.8l.2-.2c3.5,0,11.9,0,14,0l.2.2c0,1.3-.2,2.5-.2,3.7l-.2.2c-2.8,0-5.5,0-8.2,0,0,.6,0,1.5,0,2.4s0,2,0,2.7c2.6,0,5.2,0,7.7-.1l.2.2c0,1.2-.2,2.4-.2,3.6l-.2.2c-4.7,0-7.5,0-7.5,0,0,1.9,0,3.7,0,5.6,2.9,0,5.9,0,8.8-.2l.2.2h0Z"/>
          <path class="cls-1" d="M44.9,22.8c0,1.3-.2,2.7-.2,3.9l-.3.2c-4.7,0-9.4,0-14.1,0l-.2-.2c.1-2.9.2-5.9.2-8.9v-6.6c0-2.3,0-4.5-.2-6.8l.2-.2c3.5,0,11.9,0,14,0l.2.2c0,1.3-.2,2.5-.2,3.7l-.2.2c-2.8,0-5.5,0-8.2,0,0,.6,0,1.5,0,2.4s0,2,0,2.7c2.6,0,5.2,0,7.7-.1l.2.2c0,1.2-.2,2.4-.2,3.6l-.2.2c-4.7,0-7.5,0-7.5,0,0,1.9,0,3.7,0,5.6,2.9,0,5.9,0,8.8-.2l.2.2h0Z"/>
          <path class="cls-1" d="M62.8,22.8c0,1.3-.2,2.7-.2,3.9l-.3.2c-4.7,0-9.4,0-14.1,0l-.2-.2c.1-2.9.2-5.9.2-8.9v-6.6c0-2.3,0-4.5-.2-6.8l.2-.2c3.5,0,11.9,0,14,0l.2.2c0,1.3-.2,2.5-.2,3.7l-.2.2c-2.8,0-5.5,0-8.2,0,0,.6,0,1.5,0,2.4s0,2,0,2.7c2.6,0,5.2,0,7.7-.1l.2.2c0,1.2-.2,2.4-.2,3.6l-.2.2c-4.7,0-7.5,0-7.5,0,0,1.9,0,3.7,0,5.6,2.9,0,5.9,0,8.8-.2l.2.2h0Z"/>
          <path class="cls-1" d="M1,108.9l2.2-.7c.5,1.7,1.6,2.2,2.6,2.2s2-.5,2-1.5-1-1.3-2-1.7l-1.1-.3c-1.2-.4-3.2-1.2-3.2-3.5s1.8-3.6,4.2-3.6,3.8,1.3,4.2,2.8l-2.1.9c-.4-1-1.1-1.6-2.1-1.6s-1.7.5-1.7,1.3,1.1,1.4,2.1,1.7l1.3.4c1.1.4,3,1,3,3.3s-1.7,3.9-4.4,3.9-4.2-1.3-4.8-3.6Z"/>
          <path class="cls-1" d="M13.8,100.2h4.7c1,0,4.2.3,4.2,3.8s-3.3,4-4.1,4h-2.4v4.3h-2.3v-12.1ZM18.1,105.8c.9,0,2.2-.2,2.2-1.8s-1.3-1.7-2.2-1.7h-2v3.5h1.9Z"/>
          <path class="cls-1" d="M26.2,100.2h7.9v2.1h-5.6v2.7h5.3v2.2h-5.3v2.9h5.8v2.1h-8.1v-12.1h0Z"/>
          <path class="cls-1" d="M37.3,106.2c0-4,3-6.3,6.2-6.3s4.7,1.5,5.6,3.8l-2.1.9c-.6-1.4-1.7-2.5-3.4-2.5s-3.7,1.6-3.7,4.2,2.1,4.1,3.9,4.1,3.1-1,3.7-2.9l2.1.7c-1,3-3.2,4.4-5.8,4.4s-6.3-2.5-6.3-6.3h0Z"/>
          <path class="cls-1" d="M52.7,100.2h2.3v12.1h-2.3v-12.1Z"/>
          <path class="cls-1" d="M62.7,100.2h2.7l4.6,12.1h-2.5l-1.2-3.2h-4.6c-.4,1.1-.8,2.1-1.2,3.2h-2.4l4.6-12.1h0ZM65.5,106.9c-.4-1-.8-2.2-1.5-3.9h0c-.4,1.1-.9,2.5-1.5,3.9h3,0Z"/>
          <path class="cls-1" d="M73.2,100.2h2.3v10h5.3v2.1h-7.6v-12.1h0Z"/>
          <path class="cls-1" d="M89.2,100.2h2.3v12.1h-2.3v-12.1Z"/>
          <path class="cls-1" d="M96,100.2h2.4c1.8,2.7,3.6,5.2,5.4,8h0v-8h2.3v12.1h-2.4c-1.8-2.6-3.6-5.1-5.3-7.9h0v7.9h-2.3v-12.1h0Z"/>
          <path class="cls-1" d="M109.4,102.3v-2.1h9.5v2.1h-3.6v10h-2.3v-10s-3.6,0-3.6,0Z"/>
          <path class="cls-1" d="M122.3,100.2h7.9v2.1h-5.6v2.7h5.3v2.2h-5.3v2.9h5.8v2.1h-8.1v-12.1h0Z"/>
          <path class="cls-1" d="M134.2,100.2h4.7c.8,0,4.2.3,4.2,3.9s-1.3,3.3-2.7,3.7h0c1,1.5,2,3,3,4.5h-2.6l-2.9-4.3h-1.4v4.3h-2.3v-12.1h0ZM138.4,105.9c.9,0,2.2-.3,2.2-1.8s-1.3-1.8-2.2-1.8h-2v3.6h1.9,0Z"/>
          <path class="cls-1" d="M147,100.2h7.9v2.1h-5.6v2.7h5.3v2.2h-5.3v2.9h5.8v2.1h-8.1v-12.1h0Z"/>
          <path class="cls-1" d="M158,108.9l2.2-.7c.5,1.7,1.6,2.2,2.6,2.2s2-.5,2-1.5-1-1.3-2-1.7l-1.1-.3c-1.2-.4-3.2-1.2-3.2-3.5s1.8-3.6,4.2-3.6,3.8,1.3,4.2,2.8l-2.1.9c-.4-1-1.1-1.6-2.1-1.6s-1.7.5-1.7,1.3,1.1,1.4,2.1,1.7l1.3.4c1.1.4,3,1,3,3.3s-1.7,3.9-4.4,3.9-4.2-1.3-4.8-3.6h0Z"/>
          <path class="cls-1" d="M169.5,102.3v-2.1h9.5v2.1h-3.6v10h-2.3v-10s-3.6,0-3.6,0Z"/>
          <path class="cls-1" d="M186.8,106.2c0-4,2.9-6.3,6.1-6.3s4.8,1.6,5.6,3.8l-2.1.9c-.6-1.4-1.7-2.5-3.4-2.5s-3.7,1.6-3.7,4.2,2.2,4.1,3.9,4.1,3-.9,3.3-2.5h-3.2v-1.9h5.5v6.3h-1.8c0-.6,0-1.2-.1-1.8h0c-.9,1.3-2.2,2.1-4,2.1-3.5,0-5.9-2.6-5.9-6.3h0Z"/>
          <path class="cls-1" d="M202.8,100.2h4.7c.8,0,4.2.3,4.2,3.9s-1.3,3.3-2.7,3.7h0c1,1.5,2,3,3,4.5h-2.6l-2.9-4.3h-1.4v4.3h-2.3v-12.1h0ZM207.1,105.9c.9,0,2.2-.3,2.2-1.8s-1.3-1.8-2.2-1.8h-2v3.6h1.9Z"/>
          <path class="cls-1" d="M214.8,106.2c0-3.7,2.7-6.3,6.1-6.3s6.1,2.6,6.1,6.3-2.7,6.3-6.1,6.3-6.1-2.6-6.1-6.3ZM220.9,110.3c2.1,0,3.7-1.8,3.7-4.1s-1.6-4.1-3.7-4.1-3.7,1.7-3.7,4.1,1.7,4.1,3.7,4.1Z"/>
          <path class="cls-1" d="M230.7,107.5v-7.3h2.3v7.2c0,1.8.6,3,2.3,3s2.3-1.3,2.3-3v-7.2h2.3v7.3c0,2-.6,5-4.6,5s-4.6-2.9-4.6-5h0Z"/>
          <path class="cls-1" d="M244.2,100.2h4.7c1,0,4.2.3,4.2,3.8s-3.3,4-4.1,4h-2.4v4.3h-2.3v-12.1ZM248.4,105.8c.9,0,2.2-.2,2.2-1.8s-1.3-1.7-2.2-1.7h-2v3.5h1.9Z"/>
          <path class="cls-1" d="M261,106.2c0-3.7,2.7-6.3,6.1-6.3s6.1,2.6,6.1,6.3-2.7,6.3-6.1,6.3-6.1-2.6-6.1-6.3ZM267.1,110.3c2.1,0,3.7-1.8,3.7-4.1s-1.5-4.1-3.7-4.1-3.7,1.7-3.7,4.1,1.7,4.1,3.7,4.1Z"/>
          <path class="cls-1" d="M276.9,100.2h2.4c1.8,2.7,3.6,5.2,5.4,8h0v-8h2.3v12.1h-2.4c-1.8-2.6-3.6-5.1-5.3-7.9h0v7.9h-2.3v-12.1h0Z"/>
          <path class="cls-1" d="M.3,120.2h2.3v5h5.4v-5h2.3v12.1h-2.3v-4.9H2.6v4.9H.3v-12.1Z"/>
          <path class="cls-1" d="M14.6,127.5v-7.3h2.3v7.2c0,1.8.6,3,2.3,3s2.3-1.3,2.3-3v-7.2h2.3v7.3c0,2-.6,5-4.6,5s-4.6-2.9-4.6-5h0Z"/>
          <path class="cls-1" d="M28.1,120.2h2.9c1.3,2.8,2.5,5.7,3.7,8.5h0c1.2-2.8,2.5-5.7,3.7-8.5h2.9v12.1h-2.3v-7.8h0c-1.1,2.6-2.2,5.2-3.4,7.8h-1.7c-1.1-2.6-2.3-5.2-3.4-7.8h0v7.8h-2.3v-12.1h0Z"/>
          <path class="cls-1" d="M49.1,120.2h2.7l4.6,12.1h-2.5l-1.2-3.2h-4.6c-.4,1.1-.8,2.1-1.2,3.2h-2.4l4.6-12.1h0ZM51.9,126.9c-.4-1-.8-2.2-1.5-3.9h0c-.4,1.1-.9,2.5-1.5,3.9h3,0Z"/>
          <path class="cls-1" d="M59.5,120.2h2.4c1.8,2.7,3.6,5.2,5.4,8h0v-8h2.3v12.1h-2.4c-1.8-2.6-3.6-5.1-5.3-7.9h0v7.9h-2.3v-12.1h0Z"/>
          <path class="cls-1" d="M74.1,120.2h2.3v12.1h-2.3v-12.1Z"/>
          <path class="cls-1" d="M79.7,122.3v-2.1h9.5v2.1h-3.6v10h-2.3v-10s-3.6,0-3.6,0Z"/>
          <path class="cls-1" d="M94.6,120.2h2.7l4.6,12.1h-2.5l-1.2-3.2h-4.6c-.4,1.1-.8,2.1-1.2,3.2h-2.4l4.6-12.1h0ZM97.4,126.9c-.4-1-.8-2.2-1.5-3.9h0c-.4,1.1-.9,2.5-1.5,3.9h3Z"/>
          <path class="cls-1" d="M105,120.2h4.7c.8,0,4.2.3,4.2,3.9s-1.3,3.3-2.7,3.7h0c1,1.5,2,3,3,4.5h-2.6l-2.9-4.3h-1.4v4.3h-2.3v-12.1ZM109.3,125.9c.9,0,2.2-.3,2.2-1.8s-1.3-1.8-2.2-1.8h-2v3.6h1.9,0Z"/>
          <path class="cls-1" d="M117.8,120.2h2.3v12.1h-2.3v-12.1Z"/>
          <path class="cls-1" d="M127.9,120.2h2.7l4.6,12.1h-2.5l-1.2-3.2h-4.6c-.4,1.1-.8,2.1-1.2,3.2h-2.4l4.6-12.1h0ZM130.6,126.9c-.4-1-.8-2.2-1.5-3.9h0c-.4,1.1-.9,2.5-1.5,3.9h3,0Z"/>
          <path class="cls-1" d="M138.3,120.2h2.4c1.8,2.7,3.6,5.2,5.4,8h0v-8h2.3v12.1h-2.4c-1.8-2.6-3.6-5.1-5.3-7.9h0v7.9h-2.3v-12.1h0Z"/>
          <path class="cls-1" d="M156.8,122.3v-2.1h9.5v2.1h-3.6v10h-2.3v-10s-3.6,0-3.6,0Z"/>
          <path class="cls-1" d="M169.7,120.2h7.9v2.1h-5.6v2.7h5.3v2.2h-5.3v2.9h5.8v2.1h-8.1v-12.1h0Z"/>
          <path class="cls-1" d="M180.8,126.2c0-4,3-6.3,6.2-6.3s4.7,1.5,5.6,3.8l-2.1.9c-.6-1.4-1.7-2.5-3.4-2.5s-3.7,1.6-3.7,4.2,2.1,4.1,3.9,4.1,3.1-1,3.7-2.9l2.1.7c-1,3-3.2,4.4-5.8,4.4s-6.3-2.5-6.3-6.3h0Z"/>
          <path class="cls-1" d="M196.2,120.2h2.3v5h5.4v-5h2.3v12.1h-2.3v-4.9h-5.4v4.9h-2.3v-12.1Z"/>
          <path class="cls-1" d="M210.6,120.2h2.4c1.8,2.7,3.6,5.2,5.4,8h0v-8h2.3v12.1h-2.4c-1.8-2.6-3.6-5.1-5.3-7.9h0v7.9h-2.3v-12.1h0Z"/>
          <path class="cls-1" d="M224.5,126.2c0-3.7,2.7-6.3,6.1-6.3s6.1,2.6,6.1,6.3-2.7,6.3-6.1,6.3-6.1-2.6-6.1-6.3ZM230.6,130.3c2.1,0,3.7-1.8,3.7-4.1s-1.6-4.1-3.7-4.1-3.7,1.7-3.7,4.1,1.7,4.1,3.7,4.1Z"/>
          <path class="cls-1" d="M240.4,120.2h2.3v10h5.3v2.1h-7.6v-12.1h0Z"/>
          <path class="cls-1" d="M250.2,126.2c0-3.7,2.7-6.3,6.1-6.3s6.1,2.6,6.1,6.3-2.7,6.3-6.1,6.3-6.1-2.6-6.1-6.3h0ZM256.3,130.3c2.1,0,3.7-1.8,3.7-4.1s-1.5-4.1-3.7-4.1-3.7,1.7-3.7,4.1,1.7,4.1,3.7,4.1Z"/>
          <path class="cls-1" d="M265.5,126.2c0-4,2.9-6.3,6.1-6.3s4.8,1.6,5.6,3.8l-2.1.9c-.6-1.4-1.7-2.5-3.4-2.5s-3.7,1.6-3.7,4.2,2.2,4.1,3.9,4.1,3-.9,3.3-2.5h-3.2v-1.9h5.5v6.3h-1.8c0-.6,0-1.2-.1-1.8h0c-.9,1.3-2.2,2.1-4,2.1-3.5,0-5.9-2.6-5.9-6.3h0Z"/>
          <path class="cls-1" d="M283.7,128.1c-1.4-2.6-2.8-5.3-4.2-7.9h2.5c1,1.9,1.9,3.8,2.9,5.7h0c1-1.9,1.9-3.8,2.9-5.7h2.5c-1.4,2.6-2.8,5.3-4.2,7.9v4.2h-2.3v-4.2h0Z"/>
          <path class="cls-1" d="M222,18.4c0-.2,0-.4.2-.5,2.5-2.8,4.8-4.5,4.9-4.6h.1c4.9-3.9,10.8-6.2,16.9-7-.4-.8-.6-1.6-.6-2.5s0-.9.2-1.3c-6.8.9-13.5,3.5-18.9,7.8-.5.3-3.2,2.5-6.1,5.8,1.4.3,2.6,1.2,3.4,2.3Z"/>
          <path class="cls-1" d="M272,14.1c.4.3.7.6,1,.9,1.5,1.4,5.6,5.7,9,12.8,1-.8,2.2-1.4,3.6-1.4-4.4-9.3-10.1-14.4-10.6-14.8-5.4-5.1-12.5-8.2-20.1-9.2,0,.4.2.9.2,1.3,0,.9-.2,1.7-.6,2.5,6.6.9,12.8,3.6,17.5,7.9h0Z"/>
          <path class="cls-1" d="M280.1,32.2c0-.3,0-.6,0-.9-.6.1-1.2.2-1.8.2-1.5,0-3-.9-4.8-.8-.7,0-3.5.8-4.1.8,0,0-.1,0-.2,0-3,0-6.6-1-7.2-2.2-.3-.5.4-1.5.8-1.9.5-.5,1-.9,1.5-1.3.7-.6,1.3-1.2,2-1.8-1.2-.5-2.2-1.4-2.8-2.6-.6.5-1.1,1.1-1.7,1.6-.5.5-1.1,1-1.6,1.5,0,0,0,0-.1.1-2.4,2.7-2.1,4.8-1.5,6.2,1.6,3.4,7.4,4.5,10.7,4.4.4,0,3-.8,3.5-.8,1.7,0,3.4.8,5,.9,1,0,1.9-.2,2.9-.4-.5-.8-.7-1.8-.7-2.8h0Z"/>
          <circle class="cls-1" cx="285.8" cy="32.2" r="3.7"/>
          <path class="cls-1" d="M289.3,42.1c0,0,0-.1,0-.2,0,0,0-.1,0-.2,0,0,0-.1,0-.2,0,0,0-.1,0-.2,0,0,0-.1,0-.2,0,0,0-.1,0-.2,0,0,0,0-.1-.1,0,0,0-.1-.1-.1,0,0,0,0-.1-.1,0,0-.1,0-.2-.1,0,0,0,0-.1,0,0,0-.1,0-.2-.1,0,0,0,0-.1,0,0,0-.1,0-.2,0,0,0-.1,0-.2,0,0,0-.1,0-.2,0-.5,0-1.2,0-2,0-2,0-4.5-.1-5.6,0-3.1,0-3.9,1.7-6.3,2.9-1.2.6-4.2.4-5.1,1.2h-.1c-2.7,2.4-3.9,6.8-2.8,9.8.6,1.6,1.7,2.7,3,3.5.2-1.3,1-2.5,1.9-3.3-.6-.5-1.1-1-1.3-1.5-.6-1.6.2-4.2,1.7-5.5h.2c.7-.8,3.4-.4,4.2-.8,2.4-1.2,3.1-2.5,4.7-2.5.7,0,2.7,0,4.1,0,.8,0,1.4.7,1.3,1.5-.5,5.6-2.4,11-5.4,15.8,0,0-7,13.4-25.3,16.6.3.7.5,1.4.5,2.2s0,1.2-.3,1.7c20.4-2.6,28.2-18.3,28.4-18.5,4-6.4,6.1-13.8,6.2-21.3,0,0,0,0,0,0s0,0,0,0c0,0,0,0,0,0h0Z"/>
          <circle class="cls-1" cx="274.2" cy="58.6" r="3.7"/>
          <circle class="cls-1" cx="249.3" cy="80.2" r="3.7"/>
          <path class="cls-1" d="M253.3,48.4c-1-.7-2.2-1.1-3.4-1.5-.7-.2-1.4-.5-2-.7-.4-.2-.8-.3-1.1-.5,0,0,0,0-.1,0,0,0,0,0,0,.1,0,1.3-.5,2.6-1.2,3.6.3.1.6.3.9.4.8.4,1.6.6,2.4.9.9.3,1.8.6,2.3,1,.6.4.6.7.6.8,0,1-1.5,2.9-3.6,4.4-3.5,2.6-3.9,6.1-4.2,9.1-.2,1.4-.3,2.7-.7,3.9-.3.7-.7.9-.8.9-.1,0-.5-.2-.9-.9-.5-.9-.8-2.1-1.2-3.4-.3-1-.5-2-.9-2.9-.8-2.3-1.9-4.2-3.5-6.1-.3-.3-.6-.7-.8-1-1-1.2-1.9-2.1-2.2-3.5-.2-1.7-.3-3.1-.3-4.4-.3-6.1-.8-8.8-9-13.6l-1.3-.7c-1.7-1-3.3-1.8-4.8-2.9,0,0,0,0-.1,0l-.3-.2c-1.1-.7-3.5-2.2-5.6-.2,0,0-.1.2-.2.2-2,2.7-2.1,7.8-2.2,11.3v.3c0,11.3,5,22.2,13.9,29.9,6.1,5.2,13.3,8.5,20.9,9.5-.2-.5-.3-1.1-.3-1.7s.1-1.5.4-2.1c-6.7-1-13.1-4-18.5-8.6-8.1-7-12.7-16.8-12.6-26.9v-.2c0-1.8,0-4.5.5-6.7.1-.7.8-1.2,1.5-1.2h.4c1.6,1.1,3.4,2.1,5,3.1l1.3.7c6.7,4,6.8,5.3,7.1,10.5,0,1.4.2,2.9.4,4.8,0,0,0,.2,0,.3.6,2.3,1.9,3.8,3.1,5.2.3.3.5.6.8.9,1.3,1.5,2.2,3.1,2.8,4.9,0,0,0,0,0,.1.3.8.5,1.6.8,2.5.4,1.4.8,2.9,1.6,4.3,1.1,1.9,2.7,2.9,4.5,2.8,1.8,0,3.3-1.3,4.2-3.3,0,0,0,0,0-.1.6-1.7.8-3.3.9-4.9.3-2.7.5-4.8,2.7-6.4,1.6-1.1,5.2-4.1,5.1-7.5,0-1.1-.4-2.6-2.2-3.9h0Z"/>
          <circle class="cls-1" cx="240.9" cy="45.7" r="3.7"/>
          <circle class="cls-1" cx="249.3" cy="3.7" r="3.7"/>
          <circle class="cls-1" cx="217.2" cy="21.6" r="3.7"/>
          <circle class="cls-1" cx="268.7" cy="18.8" r="3.7"/>
          <path class="cls-1" d="M249,20.7c-1.6-1.5-4.1-1.3-6.2-.9-1.3.2-2.7,0-3.9-.6-3.3-1.5-8.5-1-13.6-.4-.9,0-1.7.2-2.5.3-.2,0-.3,0-.4,0,.4.8.7,1.7.7,2.7s0,.8-.1,1.2c.9,0,1.8-.2,2.8-.3,4.3-.5,9.2-1,11.5,0,2,.9,4.1,1.2,6.2.9,2.5-.4,2.9,0,3,0,0,0,.1.3,0,.7-.3,2.2-1.8,5.7-3.6,7.7-.9.7-2.2,1.1-3.5,1.6-2.9,1-7.8,2.6-5.7,9.1.3.8.8,2.8,1.6,2.8s0,0,0,0c0-1.6.9-3.1,2-4.1-.8-2.6,0-3,3.3-4.1,1.6-.5,3.4-1.1,4.9-2.4,0,0,.1-.1.2-.2,2.5-2.7,4.2-7,4.7-10,.2-2.1-.6-3.4-1.2-4h0Z"/>
        </g>
      </g>
    </g>
  </g>
</svg>