<?xml version="1.0" encoding="UTF-8"?><svg id="Layer_2" xmlns="http://www.w3.org/2000/svg" viewBox="0 0 290.2666 132.5154"><g id="Components"><g id="_x38_0b11ab4-8fd2-4f1d-826a-b18b0f890427_x40_5"><path d="M21.1797,54.22s-2.5425-.3955-3.167-.4907c-2.8292-.4293-4.9543-.7795-6.4256-1.3411-2.7581-1.0527-2.5705-3.5652-2.5705-3.5652.1553-4.2622,2.9546-6.001,9.6631-6.001,4.9033,0,8.8423,1.9805,10.293,3.312l.728.667,5.2769-5.5039-.7681-.6938c-3.6904-3.3345-9.5977-5.3247-15.8008-5.3247-7.9077,0-17.1714,3.5928-17.2529,13.7178-.0093,1.1401.1396,2.2544.4409,3.3125,1.9761,6.915,9.4419,8.0332,15.4404,8.9326.5552.083,2.3457.3623,2.3457.3623,7.7896,1.2344,10.2598,1.7949,10.3877,5.3491.196,5.4465-10.8791,5.3639-10.8877,5.3638-5.3564-.0664-10.6475-1.7358-12.8677-4.0605l-.748-.7827-5.2671,5.5073.7065.7148c4.5005,4.5503,12.5264,6.1646,18.0322,6.1646,3.4825,0,18.9927-.9156,18.5854-13.228-.3301-9.9795-9.4702-11.3853-16.1445-12.4121Z" style="fill:#fff;"/><polygon points="151.8208 36.0071 151.8208 43.5633 165.6899 43.5633 165.6899 79.1326 173.2461 79.1326 173.2461 43.5633 187.1167 43.5633 187.1167 36.0071 151.8208 36.0071" style="fill:#fff;"/><rect x="43.3706" y="36.0052" width="7.5557" height="43.1274" style="fill:#fff;"/><polygon points="138.1035 55.1712 114.3555 55.1712 114.3555 36.0052 106.7988 36.0052 106.7988 79.1326 114.3555 79.1326 114.3555 62.7273 138.1035 62.7273 138.1035 79.1326 145.6602 79.1326 145.6602 36.0052 138.1035 36.0052 138.1035 55.1712" style="fill:#fff;"/><path d="M79.0298,54.7874v7.582h14.0557c-.439,10.898-13.5022,9.9024-13.5024,9.9023-8.5234-.4448-15.0728-6.7324-15.0728-14.7026,0-8.269,7.042-14.7461,16.0317-14.7461,4.3091,0,8.353,1.6084,11.3877,4.5308l.7354.7075,5.2402-5.4434-.7354-.7075c-4.4497-4.2847-10.355-6.644-16.6279-6.644-13.2266,0-23.5879,9.7969-23.5879,22.3027s10.3613,22.3022,23.5879,22.3022c.4031,0,9.4606.0532,15.0757-5.2827,3.3594-3.1924,5.063-7.5488,5.063-12.9663l-.1201-6.835h-21.5308Z" style="fill:#fff;"/><path d="M7.3311,26.9422h-2.624c-.6074,0-3.0713.0957-3.0713.0957l-.1602-.1914c.0957-2.9766.1602-5.9199.1602-8.8955v-2.2402c0-3.7119-.0322-7.4551-.2881-11.167l.1602-.1924h2.208c1.0557,0,2.9111-.0635,3.583-.0957l.1279.1924c-.0957,4.3838-.1592,8.7988-.1592,13.2148,0,3.04.0635,6.0791.2236,9.0869l-.1602.1924Z" style="fill:#fff;"/><path d="M26.8818,22.8465c-.0957,1.3115-.1602,2.6875-.2236,3.9033l-.2559.1924c-4.6719,0-9.376.0322-14.0791.0645l-.1602-.2246c.1279-2.9434.1602-5.8877.1602-8.8633v-6.623c0-2.2725-.0322-4.5117-.2246-6.752l.1924-.1924c3.4883,0,11.9355-.0635,14.0469-.0635l.1602.1924c-.0957,1.3115-.1924,2.4629-.2236,3.7109l-.1924.1924c-2.752-.0645-5.4717-.0957-8.1914-.0957,0,.6074-.0322,1.4717-.0322,2.3672,0,1.0244,0,2.0479.0322,2.7197,2.5918,0,5.1514-.0312,7.7119-.1279l.1914.2246c-.0957,1.2158-.1602,2.3994-.2236,3.6152l-.1924.1924c-4.7031-.0322-7.4873-.0322-7.4873-.0322,0,1.8877.0322,3.7441.0645,5.5996,2.9434,0,5.8555-.0645,8.7666-.2236l.1602.2236Z" style="fill:#fff;"/><path d="M44.8662,22.8465c-.0957,1.3115-.1602,2.6875-.2236,3.9033l-.2559.1924c-4.6719,0-9.376.0322-14.0791.0645l-.1602-.2246c.1279-2.9434.1602-5.8877.1602-8.8633v-6.623c0-2.2725-.0322-4.5117-.2246-6.752l.1924-.1924c3.4883,0,11.9355-.0635,14.0469-.0635l.1602.1924c-.0957,1.3115-.1924,2.4629-.2236,3.7109l-.1924.1924c-2.752-.0645-5.4717-.0957-8.1914-.0957,0,.6074-.0322,1.4717-.0322,2.3672,0,1.0244,0,2.0479.0322,2.7197,2.5918,0,5.1514-.0312,7.7119-.1279l.1914.2246c-.0957,1.2158-.1602,2.3994-.2236,3.6152l-.1924.1924c-4.7031-.0322-7.4873-.0322-7.4873-.0322,0,1.8877.0322,3.7441.0645,5.5996,2.9434,0,5.8555-.0645,8.7666-.2236l.1602.2236Z" style="fill:#fff;"/><path d="M62.8496,22.8465c-.0957,1.3115-.1602,2.6875-.2236,3.9033l-.2559.1924c-4.6719,0-9.376.0322-14.0791.0645l-.1602-.2246c.1279-2.9434.1602-5.8877.1602-8.8633v-6.623c0-2.2725-.0322-4.5117-.2246-6.752l.1924-.1924c3.4883,0,11.9355-.0635,14.0469-.0635l.1602.1924c-.0957,1.3115-.1924,2.4629-.2236,3.7109l-.1924.1924c-2.752-.0645-5.4717-.0957-8.1914-.0957,0,.6074-.0322,1.4717-.0322,2.3672,0,1.0244,0,2.0479.0322,2.7197,2.5918,0,5.1514-.0312,7.7119-.1279l.1914.2246c-.0957,1.2158-.1602,2.3994-.2236,3.6152l-.1924.1924c-4.7031-.0322-7.4873-.0322-7.4873-.0322,0,1.8877.0322,3.7441.0645,5.5996,2.9434,0,5.8555-.0645,8.7666-.2236l.1602.2236Z" style="fill:#fff;"/><path d="M.9766,108.9344l2.1543-.7285c.4648,1.7051,1.5664,2.2168,2.6045,2.2168,1.0693,0,2.0156-.5117,2.0156-1.4883,0-1.0234-1.0234-1.3486-2.0469-1.6748l-1.085-.3252c-1.1934-.3564-3.2246-1.1631-3.2246-3.457,0-2.1865,1.8447-3.5664,4.1699-3.5664,2.2949,0,3.8145,1.3496,4.2021,2.8223l-2.1084.8525c-.3721-.9766-1.0703-1.5811-2.1396-1.5811-1.0234,0-1.7051.542-1.7051,1.2861,0,.9766,1.1318,1.3955,2.0928,1.7061l1.2715.4023c1.1006.3564,3.0225.9609,3.0225,3.2559,0,2.1855-1.7207,3.8604-4.4336,3.8604-2.3564,0-4.2168-1.2715-4.79-3.5811Z" style="fill:#fff;"/><path d="M13.8418,100.159h4.666c.9766,0,4.2012.3418,4.2012,3.8457,0,3.5654-3.2705,3.9834-4.1387,3.9834h-2.4189v4.2637h-2.3096v-12.0928ZM18.0898,105.7556c.8672,0,2.2012-.248,2.2012-1.751,0-1.458-1.3184-1.7217-2.1709-1.7217h-1.9688v3.4727h1.9385Z" style="fill:#fff;"/><path d="M26.1943,100.159h7.9062v2.124h-5.5967v2.7139h5.2871v2.2324h-5.2871v2.8828h5.752v2.1396h-8.0615v-12.0928Z" style="fill:#fff;"/><path d="M37.292,106.1746c0-4.0459,2.9609-6.2637,6.1543-6.2637,2.6045,0,4.7129,1.4883,5.5508,3.7988l-2.1396.8525c-.6045-1.4268-1.7363-2.4805-3.4414-2.4805-2.124,0-3.7051,1.6279-3.7051,4.2012,0,2.9609,2.0771,4.0615,3.875,4.0615,1.7207,0,3.0703-1.0225,3.6748-2.9141l2.1387.7285c-.9766,3.0078-3.209,4.3564-5.8447,4.3564-3.627,0-6.2627-2.5273-6.2627-6.3408Z" style="fill:#fff;"/><path d="M52.6836,100.159h2.3096v12.0928h-2.3096v-12.0928Z" style="fill:#fff;"/><path d="M62.7441,100.159h2.6973l4.5889,12.0928h-2.4648l-1.209-3.1631h-4.6201c-.4033,1.0547-.791,2.1094-1.1934,3.1631h-2.3877l4.5889-12.0928ZM65.5342,106.8562c-.3721-.9766-.8369-2.2324-1.457-3.9219h-.0312c-.4033,1.1006-.9453,2.5273-1.4883,3.9219h2.9766Z" style="fill:#fff;"/><path d="M73.1904,100.159h2.3096v9.9531h5.3174v2.1396h-7.627v-12.0928Z" style="fill:#fff;"/><path d="M89.248,100.159h2.3096v12.0928h-2.3096v-12.0928Z" style="fill:#fff;"/><path d="M95.959,100.159h2.4023c1.7832,2.6514,3.5664,5.2402,5.3643,8.0469h.0312v-8.0469h2.2939v12.0928h-2.3867c-1.7832-2.6201-3.5664-5.1318-5.3486-7.876h-.0469v7.876h-2.3096v-12.0928Z" style="fill:#fff;"/><path d="M109.3965,102.283v-2.124h9.5498v2.124h-3.627v9.9687h-2.2949v-9.9687h-3.6279Z" style="fill:#fff;"/><path d="M122.2783,100.159h7.9062v2.124h-5.5967v2.7139h5.2871v2.2324h-5.2871v2.8828h5.752v2.1396h-8.0615v-12.0928Z" style="fill:#fff;"/><path d="M134.1973,100.159h4.666c.8223,0,4.2012.3418,4.2012,3.8916,0,2.2793-1.3486,3.333-2.7285,3.6895v.0156c1.0078,1.4883,2.0156,2.9922,3.0234,4.4961h-2.6045l-2.8525-4.3252h-1.3955v4.3252h-2.3096v-12.0928ZM138.4453,105.8797c.8672,0,2.2012-.3252,2.2012-1.7822,0-1.4424-1.3184-1.8447-2.1709-1.8447h-1.9687v3.627h1.9385Z" style="fill:#fff;"/><path d="M146.9541,100.159h7.9062v2.124h-5.5967v2.7139h5.2871v2.2324h-5.2871v2.8828h5.752v2.1396h-8.0615v-12.0928Z" style="fill:#fff;"/><path d="M158.0352,108.9344l2.1553-.7285c.4648,1.7051,1.5654,2.2168,2.6045,2.2168,1.0703,0,2.0156-.5117,2.0156-1.4883,0-1.0234-1.0234-1.3486-2.0469-1.6748l-1.085-.3252c-1.1934-.3564-3.2246-1.1631-3.2246-3.457,0-2.1865,1.8447-3.5664,4.1709-3.5664,2.2939,0,3.8135,1.3496,4.2012,2.8223l-2.1084.8525c-.3721-.9766-1.0703-1.5811-2.1396-1.5811-1.0234,0-1.7051.542-1.7051,1.2861,0,.9766,1.1309,1.3955,2.0928,1.7061l1.2705.4023c1.1016.3564,3.0234.9609,3.0234,3.2559,0,2.1855-1.7207,3.8604-4.4336,3.8604-2.3564,0-4.2168-1.2715-4.791-3.5811Z" style="fill:#fff;"/><path d="M169.5361,102.283v-2.124h9.5498v2.124h-3.627v9.9687h-2.2949v-9.9687h-3.6279Z" style="fill:#fff;"/><path d="M186.835,106.2215c0-3.9688,2.8525-6.3105,6.1396-6.3105,2.6816,0,4.7744,1.5508,5.5654,3.7988l-2.1396.8525c-.6045-1.4268-1.7207-2.4805-3.4258-2.4805-2.0781,0-3.7207,1.5654-3.7207,4.2012,0,3.0537,2.2471,4.0615,3.9375,4.0615,1.6895,0,2.9922-.9453,3.2861-2.4805h-3.1934v-1.875h5.5039v6.2627h-1.7676c-.0313-.6045-.0771-1.2246-.124-1.8291h-.0781c-.8672,1.3486-2.1855,2.0928-4.0459,2.0928-3.4727,0-5.9375-2.6201-5.9375-6.2939Z" style="fill:#fff;"/><path d="M202.8154,100.159h4.666c.8213,0,4.2012.3418,4.2012,3.8916,0,2.2793-1.3486,3.333-2.7285,3.6895v.0156c1.0078,1.4883,2.0156,2.9922,3.0234,4.4961h-2.6045l-2.8525-4.3252h-1.3955v4.3252h-2.3096v-12.0928ZM207.0625,105.8797c.8691,0,2.2021-.3252,2.2021-1.7822,0-1.4424-1.3184-1.8447-2.1709-1.8447h-1.9688v3.627h1.9375Z" style="fill:#fff;"/><path d="M214.7959,106.2215c0-3.7207,2.7441-6.3105,6.124-6.3105,3.3945,0,6.1074,2.6357,6.1074,6.3105,0,3.6582-2.6973,6.2939-6.1074,6.2939-3.3643,0-6.124-2.5732-6.124-6.2939ZM220.9355,110.3445c2.0771,0,3.6738-1.752,3.6738-4.123,0-2.3262-1.5508-4.1396-3.6738-4.1396-2.0937,0-3.7207,1.7363-3.7207,4.1396,0,2.4336,1.6582,4.123,3.7207,4.123Z" style="fill:#fff;"/><path d="M230.6533,107.5076v-7.3486h2.2939v7.1631c0,1.752.5742,3.0225,2.3252,3.0225,1.752,0,2.3105-1.2705,2.3105-3.0225v-7.1631h2.3096v7.3486c0,2.0312-.5732,5.0078-4.6348,5.0078-3.9688,0-4.6045-2.8838-4.6045-5.0078Z" style="fill:#fff;"/><path d="M244.1689,100.159h4.666c.9766,0,4.2012.3418,4.2012,3.8457,0,3.5654-3.2705,3.9834-4.1387,3.9834h-2.4189v4.2637h-2.3096v-12.0928ZM248.416,105.7556c.8691,0,2.2021-.248,2.2021-1.751,0-1.458-1.3184-1.7217-2.1709-1.7217h-1.9688v3.4727h1.9375Z" style="fill:#fff;"/><path d="M260.9707,106.2215c0-3.7207,2.7441-6.3105,6.124-6.3105,3.3945,0,6.1084,2.6357,6.1084,6.3105,0,3.6582-2.6982,6.2939-6.1084,6.2939-3.3643,0-6.124-2.5732-6.124-6.2939ZM267.1104,110.3445c2.0771,0,3.6738-1.752,3.6738-4.123,0-2.3262-1.5498-4.1396-3.6738-4.1396-2.0928,0-3.7207,1.7363-3.7207,4.1396,0,2.4336,1.6582,4.123,3.7207,4.123Z" style="fill:#fff;"/><path d="M276.9355,100.159h2.4023c1.7832,2.6514,3.5664,5.2402,5.3643,8.0469h.0312v-8.0469h2.2939v12.0928h-2.3867c-1.7832-2.6201-3.5664-5.1318-5.3486-7.876h-.0469v7.876h-2.3096v-12.0928Z" style="fill:#fff;"/><path d="M.2783,120.159h2.3096v4.9922h5.4102v-4.9922h2.3105v12.0928h-2.3105v-4.8682H2.5879v4.8682H.2783v-12.0928Z" style="fill:#fff;"/><path d="M14.6006,127.5076v-7.3486h2.2939v7.1631c0,1.752.5742,3.0225,2.3252,3.0225,1.752,0,2.3105-1.2705,2.3105-3.0225v-7.1631h2.3096v7.3486c0,2.0312-.5732,5.0078-4.6348,5.0078-3.9688,0-4.6045-2.8838-4.6045-5.0078Z" style="fill:#fff;"/><path d="M28.1162,120.159h2.8682c1.2559,2.8223,2.4961,5.6592,3.7363,8.4961h.0303c1.2402-2.8369,2.4805-5.6738,3.7363-8.4961h2.8682v12.0928h-2.3408v-7.7822h-.0625c-1.1162,2.5889-2.2471,5.1934-3.3789,7.7822h-1.6748c-1.1318-2.5889-2.2637-5.1934-3.3799-7.7822h-.0615v7.7822h-2.3408v-12.0928Z" style="fill:#fff;"/><path d="M49.1035,120.159h2.6973l4.5889,12.0928h-2.4648l-1.209-3.1631h-4.6201c-.4033,1.0547-.791,2.1094-1.1934,3.1631h-2.3877l4.5889-12.0928ZM51.8936,126.8562c-.3721-.9766-.8369-2.2324-1.457-3.9219h-.0312c-.4033,1.1006-.9453,2.5273-1.4883,3.9219h2.9766Z" style="fill:#fff;"/><path d="M59.5498,120.159h2.4023c1.7832,2.6514,3.5664,5.2402,5.3643,8.0469h.0312v-8.0469h2.2939v12.0928h-2.3867c-1.7832-2.6201-3.5664-5.1318-5.3486-7.876h-.0469v7.876h-2.3096v-12.0928Z" style="fill:#fff;"/><path d="M74.0576,120.159h2.3096v12.0928h-2.3096v-12.0928Z" style="fill:#fff;"/><path d="M79.6982,122.283v-2.124h9.5498v2.124h-3.627v9.9687h-2.2949v-9.9687h-3.6279Z" style="fill:#fff;"/><path d="M94.5957,120.159h2.6973l4.5889,12.0928h-2.4648l-1.209-3.1631h-4.6201c-.4033,1.0547-.791,2.1094-1.1934,3.1631h-2.3877l4.5889-12.0928ZM97.3857,126.8562c-.3721-.9766-.8369-2.2324-1.457-3.9219h-.0313c-.4033,1.1006-.9453,2.5273-1.4883,3.9219h2.9766Z" style="fill:#fff;"/><path d="M105.042,120.159h4.666c.8213,0,4.2012.3418,4.2012,3.8916,0,2.2793-1.3486,3.333-2.7285,3.6895v.0156c1.0078,1.4883,2.0156,2.9922,3.0234,4.4961h-2.6045l-2.8525-4.3252h-1.3955v4.3252h-2.3096v-12.0928ZM109.2891,125.8797c.8691,0,2.2021-.3252,2.2021-1.7822,0-1.4424-1.3184-1.8447-2.1709-1.8447h-1.9687v3.627h1.9375Z" style="fill:#fff;"/><path d="M117.7979,120.159h2.3096v12.0928h-2.3096v-12.0928Z" style="fill:#fff;"/><path d="M127.8584,120.159h2.6973l4.5889,12.0928h-2.4648l-1.209-3.1631h-4.6201c-.4033,1.0547-.791,2.1094-1.1943,3.1631h-2.3867l4.5889-12.0928ZM130.6484,126.8562c-.3721-.9766-.8369-2.2324-1.457-3.9219h-.0312c-.4023,1.1006-.9453,2.5273-1.4883,3.9219h2.9766Z" style="fill:#fff;"/><path d="M138.3047,120.159h2.4023c1.7832,2.6514,3.5664,5.2402,5.3643,8.0469h.0312v-8.0469h2.2939v12.0928h-2.3867c-1.7832-2.6201-3.5664-5.1318-5.3486-7.876h-.0469v7.876h-2.3096v-12.0928Z" style="fill:#fff;"/><path d="M156.8105,122.283v-2.124h9.5498v2.124h-3.627v9.9687h-2.2949v-9.9687h-3.6279Z" style="fill:#fff;"/><path d="M169.6914,120.159h7.9062v2.124h-5.5967v2.7139h5.2861v2.2324h-5.2861v2.8828h5.752v2.1396h-8.0615v-12.0928Z" style="fill:#fff;"/><path d="M180.7891,126.1746c0-4.0459,2.9609-6.2637,6.1543-6.2637,2.6045,0,4.7129,1.4883,5.5508,3.7988l-2.1396.8525c-.6045-1.4268-1.7363-2.4805-3.4414-2.4805-2.124,0-3.7061,1.6279-3.7061,4.2012,0,2.9609,2.0781,4.0615,3.876,4.0615,1.7207,0,3.0693-1.0225,3.6748-2.9141l2.1387.7285c-.9766,3.0078-3.209,4.3564-5.8438,4.3564-3.6279,0-6.2637-2.5273-6.2637-6.3408Z" style="fill:#fff;"/><path d="M196.1807,120.159h2.3096v4.9922h5.4102v-4.9922h2.3105v12.0928h-2.3105v-4.8682h-5.4102v4.8682h-2.3096v-12.0928Z" style="fill:#fff;"/><path d="M210.6113,120.159h2.4023c1.7832,2.6514,3.5664,5.2402,5.3643,8.0469h.0312v-8.0469h2.2939v12.0928h-2.3867c-1.7832-2.6201-3.5664-5.1318-5.3486-7.876h-.0469v7.876h-2.3096v-12.0928Z" style="fill:#fff;"/><path d="M224.4521,126.2215c0-3.7207,2.7441-6.3105,6.124-6.3105,3.3945,0,6.1074,2.6357,6.1074,6.3105,0,3.6582-2.6973,6.2939-6.1074,6.2939-3.3643,0-6.124-2.5732-6.124-6.2939ZM230.5918,130.3445c2.0771,0,3.6738-1.752,3.6738-4.123,0-2.3262-1.5508-4.1396-3.6738-4.1396-2.0938,0-3.7207,1.7363-3.7207,4.1396,0,2.4336,1.6582,4.123,3.7207,4.123Z" style="fill:#fff;"/><path d="M240.418,120.159h2.3096v9.9531h5.3174v2.1396h-7.627v-12.0928Z" style="fill:#fff;"/><path d="M250.1816,126.2215c0-3.7207,2.7441-6.3105,6.124-6.3105,3.3945,0,6.1084,2.6357,6.1084,6.3105,0,3.6582-2.6982,6.2939-6.1084,6.2939-3.3643,0-6.124-2.5732-6.124-6.2939ZM256.3213,130.3445c2.0771,0,3.6738-1.752,3.6738-4.123,0-2.3262-1.5498-4.1396-3.6738-4.1396-2.0928,0-3.7207,1.7363-3.7207,4.1396,0,2.4336,1.6582,4.123,3.7207,4.123Z" style="fill:#fff;"/><path d="M265.4961,126.2215c0-3.9688,2.8525-6.3105,6.1387-6.3105,2.6826,0,4.7754,1.5508,5.5664,3.7988l-2.1396.8525c-.6045-1.4268-1.7207-2.4805-3.4268-2.4805-2.0771,0-3.7207,1.5654-3.7207,4.2012,0,3.0537,2.248,4.0615,3.9385,4.0615,1.6895,0,2.9922-.9453,3.2861-2.4805h-3.1934v-1.875h5.5039v6.2627h-1.7676c-.0312-.6045-.0781-1.2246-.124-1.8291h-.0771c-.8691,1.3486-2.1865,2.0928-4.0469,2.0928-3.4727,0-5.9375-2.6201-5.9375-6.2939Z" style="fill:#fff;"/><path d="M283.7393,128.0965c-1.4102-2.6348-2.8213-5.2861-4.2314-7.9375h2.4648c.9766,1.8916,1.9219,3.7676,2.8984,5.6592h.0313c.9609-1.8916,1.9219-3.7676,2.8994-5.6592h2.4648c-1.4111,2.6357-2.8066,5.2871-4.2324,7.9229v4.1699h-2.2949v-4.1553Z" style="fill:#fff;"/><path d="M221.9878,18.3689c-.0181-.1821.0303-.3745.1763-.5342,2.5225-2.7554,4.7637-4.4863,4.9077-4.5967l.1147-.0894c4.8721-3.8169,10.7856-6.1133,16.8765-6.9585-.3584-.751-.5649-1.5879-.5649-2.4736,0-.4507.0571-.8877.1553-1.3086-6.8413.9175-13.4824,3.481-18.9307,7.7754-.4561.3496-3.2031,2.5073-6.1172,5.8472,1.3936.3423,2.5913,1.188,3.3823,2.3384Z" style="fill:#fff;"/><path d="M272.0229,14.1092c.3726.2632.7109.5698,1.0112.9121,1.4512,1.3809,5.6426,5.7393,9.0166,12.7866.9678-.8413,2.2163-1.3638,3.5859-1.4087-4.3926-9.3184-10.1367-14.375-10.6182-14.7842-5.3613-5.1421-12.5435-8.2065-20.1401-9.2163.0996.4243.1577.8638.1577,1.3179,0,.8799-.2041,1.7109-.5576,2.458,6.6006.9023,12.8218,3.5508,17.5444,7.9346Z" style="fill:#fff;"/><path d="M280.0576,32.159c0-.3037.0308-.6001.0762-.8916-.5972.1406-1.1914.2485-1.792.2251-1.4883-.0581-3.0205-.8706-4.7632-.8462-.6792.0093-3.5137.8184-4.062.7964-.0518-.002-.103-.002-.1543,0-2.9653.0952-6.5972-1.0083-7.1763-2.2285-.2554-.5386.4478-1.457.8208-1.8882.4785-.4507.9731-.8975,1.4702-1.3462.6655-.6006,1.3291-1.2173,1.9795-1.8462-1.2202-.5181-2.2251-1.4448-2.8452-2.6064-.563.5386-1.1382,1.0713-1.7158,1.5928-.543.4883-1.082.9756-1.603,1.4678-.0396.041-.0806.0835-.1196.124-2.3594,2.6694-2.1006,4.8198-1.4687,6.1533,1.6313,3.4404,7.4121,4.5498,10.7295,4.4302.3999.0161,3.0415-.791,3.5005-.791,1.7495,0,3.3813.8027,4.9712.854.9741.0308,1.9321-.1685,2.8921-.3823-.4692-.834-.7397-1.7939-.7397-2.8169Z" style="fill:#fff;"/><circle cx="285.8273" cy="32.1588" r="3.7167" style="fill:#fff;"/><path d="M289.3315,42.0725c.0005-.0601-.0122-.1172-.0171-.1758-.0063-.0679-.0068-.1367-.02-.2017-.0127-.0645-.0361-.1245-.0552-.1865-.0181-.0586-.0312-.1191-.0542-.1753-.0249-.0601-.0596-.1147-.0903-.1714-.0283-.0527-.0522-.1079-.085-.1572-.0337-.0503-.0752-.0942-.1133-.1411-.04-.0493-.0762-.1016-.1206-.1465-.0386-.0391-.0835-.0703-.125-.106-.0522-.0449-.1021-.0923-.1592-.1318-.042-.0288-.0898-.0493-.1343-.0752-.0635-.0361-.1245-.0752-.1919-.1045-.0474-.02-.0996-.0312-.1489-.0479-.0703-.0234-.1382-.0508-.2114-.0659-.0557-.0122-.1147-.0127-.1719-.02-.0679-.0078-.1338-.022-.2036-.0229-.4707-.0054-1.2061-.0234-2.0454-.0425-1.9932-.0479-4.4771-.1069-5.5957-.0674-3.0518.0698-3.9355,1.709-6.2798,2.9048-1.189.6064-4.1851.3838-5.1055,1.2466l-.1006.0933c-2.6787,2.3218-3.9229,6.6968-2.7817,9.7231.5659,1.5723,1.7212,2.6616,3.0151,3.5396.2485-1.3315.9536-2.5029,1.9482-3.3447-.6411-.4653-1.1455-.9644-1.3481-1.5264-.5859-1.5557.2354-4.2192,1.7246-5.5112l.1572-.1426c.6958-.6528,3.3916-.208,4.188-.6206,2.3882-1.2358,3.0903-2.4736,4.6909-2.5103.6523-.0225,2.6777.0391,4.0806.0996.7812.0332,1.3926.709,1.3184,1.4873-.5366,5.6011-2.3618,11.0254-5.3696,15.834-.0396.0635-7.0352,13.4189-25.3413,16.6406.29.6875.4512,1.4424.4512,2.2344,0,.5957-.0908,1.1709-.2593,1.7119,20.3833-2.5684,28.2383-18.2705,28.3931-18.5078,4.0142-6.416,6.1436-13.7744,6.1606-21.2798,0-.0039.001-.0073.001-.0107,0-.002-.0005-.0044-.0005-.0063,0-.0049.0005-.0098.0005-.0151Z" style="fill:#fff;"/><circle cx="274.2037" cy="58.5979" r="3.7167" style="fill:#fff;"/><circle cx="249.267" cy="80.1807" r="3.7167" style="fill:#fff;"/><path d="M253.2852,48.3543c-.9678-.7012-2.1797-1.1025-3.3521-1.4902-.6743-.2241-1.3735-.4556-2.0186-.7471-.3828-.1636-.7573-.3359-1.1309-.5068-.0435-.02-.0894-.04-.1333-.0601.001.0371.0059.0732.0059.1108,0,1.3433-.4653,2.5776-1.2378,3.5596.3193.146.6406.2935.9429.4233.7969.3594,1.5918.623,2.3604.8779.9351.3096,1.8184.6021,2.3398.979.5762.397.5801.6699.5815.7866.0142.9961-1.5044,2.8657-3.5557,4.3662-3.4849,2.6323-3.8657,6.0781-4.2002,9.1187-.1533,1.3916-.2983,2.7061-.7183,3.9175-.3232.6973-.6895.939-.8188.9458-.1001.0215-.479-.1509-.9146-.9072-.5317-.939-.8447-2.1226-1.1763-3.3765-.2539-.9624-.5161-1.9565-.9009-2.9248-.7847-2.2954-1.8965-4.2456-3.4868-6.1216-.2813-.3379-.5645-.6611-.8447-.9814-1.0425-1.189-1.873-2.1353-2.2354-3.4531-.1899-1.6992-.271-3.1465-.3433-4.4258-.3418-6.0947-.8047-8.7593-8.9619-13.5771l-1.2939-.7344c-1.6826-.9512-3.2705-1.8486-4.7861-2.8984-.0376-.0259-.0752-.0503-.1147-.0737l-.3452-.2104c-1.1499-.709-3.543-2.1816-5.604-.2358-.0732.0815-.1479.1655-.2207.2476-2.0166,2.6841-2.1089,7.8462-2.1699,11.2622l-.0049.2598c-.0659,11.2847,5.0186,22.1709,13.9487,29.8687,6.0625,5.2241,13.3174,8.4824,20.8594,9.5283-.1665-.5381-.2568-1.1094-.2568-1.7012,0-.7554.1499-1.4751.415-2.1367-6.6748-1.0024-13.1113-3.9634-18.502-8.6099-8.0737-6.959-12.6699-16.7729-12.6108-26.9033l.0039-.2368c.0308-1.7563.0815-4.5498.5181-6.6768.1431-.6963.7773-1.1826,1.4883-1.1826h.4482c1.6455,1.1367,3.3696,2.1113,5.0376,3.0537l1.252.7104c6.687,3.9502,6.7651,5.3291,7.0532,10.4619.0757,1.3628.1626,2.9067.3745,4.769.0151.0859.0317.1777.0469.2637.5728,2.2822,1.8608,3.752,3.1074,5.1719.2578.2949.519.5928.79.9175,1.3071,1.5425,2.1724,3.063,2.8047,4.9307.0122.0337.0244.0674.0376.1006.3066.7622.5322,1.6172.7715,2.522.3789,1.4365.7715,2.9214,1.5547,4.3022,1.0908,1.8984,2.6968,2.9077,4.4614,2.8457,1.7622-.0923,3.2812-1.2925,4.1704-3.2935.02-.0439.0376-.0903.0537-.1357.5889-1.6548.7686-3.2842.9424-4.8599.2983-2.7017.5337-4.8354,2.6689-6.4487,1.5527-1.1357,5.1577-4.1396,5.1104-7.5122-.0146-1.0845-.417-2.6436-2.2109-3.8794Z" style="fill:#fff;"/><circle cx="240.8869" cy="45.6611" r="3.7167" style="fill:#fff;"/><circle cx="249.267" cy="3.7167" r="3.7167" style="fill:#fff;"/><circle cx="217.2315" cy="21.6273" r="3.7167" style="fill:#fff;"/><circle cx="268.7021" cy="18.8186" r="3.7167" style="fill:#fff;"/><path d="M248.9521,20.6673c-1.6152-1.5063-4.0742-1.3115-6.2407-.9248-1.2578.2061-2.6826-.0103-3.9326-.6001-3.3164-1.5244-8.52-.959-13.5537-.4121-.8516.0923-1.689.1831-2.4966.2607-.1582.0151-.2993-.021-.4155-.0908.438.8125.688,1.7412.688,2.7275,0,.417-.0469.8228-.1313,1.2144.9028-.084,1.8237-.1782,2.772-.2812,4.3027-.4673,9.1782-.998,11.5103.0752,1.9512.9194,4.146,1.2432,6.2065.9043,2.4551-.4355,2.9209-.0942,2.9609-.061.0293.0449.1021.2871.0601.7056-.3369,2.1724-1.8096,5.7173-3.6206,7.7388-.8774.6973-2.2144,1.1436-3.5078,1.5767-2.8994.9688-7.7529,2.5898-5.731,9.0669.2578.8252.7861,2.7661,1.6064,2.7661.0024,0,.0054-.0039.0073-.0044.0933-1.6221.855-3.0664,2.019-4.0576-.7886-2.6304.0078-3.0098,3.3193-4.1162,1.6069-.5371,3.4292-1.146,4.8696-2.3672.0537-.0513.1069-.1025.1611-.1543,2.4902-2.6958,4.2422-7.0015,4.6968-9.9512.2266-2.1465-.5532-3.3682-1.2476-4.0151Z" style="fill:#fff;"/></g></g></svg>